<svg xmlns="http://www.w3.org/2000/svg" width="100%" height="100%" viewBox="0 0 2287 1476">
	<style>
		.dashed {
			stroke-dasharray: 10;
		}
		.path {
			stroke-dasharray: 1000;
			stroke-dashoffset: 1000;
			animation: dash 10s linear alternate infinite;
		}

		@keyframes dash {
			from {
				stroke-dashoffset: 1000;
			}
			to {
				stroke-dashoffset: 0;
			}
		}
	</style>

	<path id="path" class="path" fill="none" stroke="white" stroke-width="4" stroke-linejoin="round" stroke-miterlimit="10" d="M23.742,10.709
	c-2.305,23.611-8.81,46.563-9.021,70.829c-0.252,28.966,22.237,43.666,47.06,55.482c23.642,11.255,42.368,15.766,68.461,16.631
	c19.993,0.663,40.08,2.97,59.853-1.723c23.301-5.531,45.542-17.598,66.978-27.933c19.248-9.281,38.831-21.86,41.946-45.201
	c5.539-41.51-54.993-47.073-81.885-42.17C159.05,47.212,89.37,104.633,77.387,164.629c-5.896,29.522-4.312,60.884,12.703,86.354
	c19.17,28.697,49.512,49.927,78.596,67.591" />

	<path id="dashed" class="dashed" fill="none" stroke="#f44336" stroke-width="5" stroke-linejoin="round" stroke-miterlimit="10" d="M23.742,10.709
	c-2.305,23.611-8.81,46.563-9.021,70.829c-0.252,28.966,22.237,43.666,47.06,55.482c23.642,11.255,42.368,15.766,68.461,16.631
	c19.993,0.663,40.08,2.97,59.853-1.723c23.301-5.531,45.542-17.598,66.978-27.933c19.248-9.281,38.831-21.86,41.946-45.201
	c5.539-41.51-54.993-47.073-81.885-42.17C159.05,47.212,89.37,104.633,77.387,164.629c-5.896,29.522-4.312,60.884,12.703,86.354
	c19.17,28.697,49.512,49.927,78.596,67.591" />
	<!-- <path class="path" fill="none" stroke="#000000" stroke-miterlimit="10" d="M234.3,119 c-31-0.7-95,9-128.7,50.8" /> -->
	<g id="plane" style="" transform="scale(0.1, 0.1) translate(0, 200) rotate(230 100 100)">
		<defs id="defs0" />
		<path d="M 439.48098,95.969555 L 393.34268,142.46481 L 305.91233,133.41187 L 324.72376,114.58551 L 308.61525,98.464215 L 276.15845,130.94677 L 185.25346,123.08136 L 201.15145,107.27643 L 186.46085,92.574165 L 158.32,120.73735 L 45.386032,112.12042 L 15.000017,131.66667 L 221.20641,192.48691 L 298.26133,237.01135 L 191.91028,345.62828 L 152.82697,408.6082 L 41.549634,393.05411 L 21.037984,413.58203 L 109.25334,470.93369 L 166.38515,558.95725 L 186.8968,538.42933 L 171.35503,427.06371 L 234.28504,387.94939 L 342.81586,281.51396 L 387.305,358.63003 L 448.07703,565.00001 L 467.60778,534.58989 L 458.99769,421.56633 L 487.16033,393.38134 L 473.14247,379.35235 L 456.6139,395.97492 L 448.79636,303.63439 L 481.25315,271.15184 L 465.14464,255.03055 L 446.33321,273.8569 L 436.04766,185.1164 L 482.35108,138.7864 C 501.1942,119.92833 560.62425,61.834815 564.99998,14.999985 C 515.28999,23.707295 476.1521,61.495405 439.48098,95.969555 z " style="opacity:1;color:#000000;fill:darkred;fill-opacity:1;fill-rule:nonzero;stroke:none;marker:none;visibility:visible;display:inline;overflow:visible" id="path1" />
	</g>
	<animateMotion href="#plane" dur="20s" begin="0s" fill="freeze" repeatCount="indefinite" rotate="auto-reverse" keyPoints="0;1;0" keyTimes="0;0.5;1" calcMode="linear">
		<mpath href="#dashed" />
	</animateMotion>

</svg>
